<svg width="128" height="128" viewBox="0 0 128 128" fill="none" xmlns="http://www.w3.org/2000/svg">
<path opacity="0.1" d="M77.3475 50.6127C73.0553 46.2515 73.0959 45.9038 67.9939 44.3345C62.892 42.7652 56.9198 44.3345 56.9198 44.3345L45.1305 69.0743C44.6358 70.1695 44.5921 71.4154 45.0089 72.5425C45.4256 73.6697 46.2693 74.5875 47.3574 75.0975L73.5834 89.3556C74.36 89.7417 75.0175 90.331 75.4861 91.0608C75.9547 91.7906 76.2169 92.6336 76.245 93.5004V118.083C76.245 120.799 73.6883 122.996 70.5336 122.996C67.3789 122.996 64.8222 120.795 64.8222 118.083V96.2092L41.2587 83.4259C34.217 79.6014 31.3873 71.972 34.5505 65.3423L44.5655 44.3335H31.9041C30.8912 44.3037 29.8879 44.5383 28.9932 45.0143C28.0986 45.4903 27.3434 46.1912 26.8022 47.048L18.5342 61.2815C17.7237 62.4961 16.5089 63.3839 15.1057 63.7873C13.7024 64.1907 12.2016 64.0836 10.8699 63.4848C8.04678 62.2707 6.90167 59.3173 8.31132 56.8863L16.5812 42.6282C19.4752 37.6292 25.4161 34.4782 31.9041 34.5028H69.7286C75.7348 34.5179 81.2987 37.2248 84.4119 41.6465C95.9811 58.1759 81.6398 54.974 77.3475 50.6127ZM35.553 87.6719C32.6241 86.6629 29.3002 87.8892 28.1287 90.4119C27.6282 91.3772 26.8637 92.1803 25.9243 92.7278C24.9849 93.2753 23.9092 93.5446 22.8226 93.5042H7.71137C4.55665 93.5004 2 95.7028 2 98.4172C2 101.132 4.55665 103.33 7.71137 103.33H22.8226C29.836 103.349 36.1444 99.67 38.7342 94.0579C39.9057 91.5371 38.4819 88.6725 35.553 87.6662V87.6719ZM76.245 29.5841C84.1303 29.5841 90.5229 24.0806 90.5229 17.2922C90.5229 10.5037 84.1303 5.00115 76.245 5.00115C68.3596 5.00115 61.967 10.5047 61.967 17.2931C61.967 24.0816 68.3596 29.5841 76.245 29.5841Z" fill="#E0E9FB"/>
<path opacity="0.52" d="M118.527 64.0005C118.527 64.6457 118.4 65.2845 118.153 65.8806C117.906 66.4767 117.545 67.0183 117.088 67.4745C116.632 67.9307 116.091 68.2926 115.494 68.5395C114.898 68.7864 114.259 68.9135 113.614 68.9135H99.4998C96.9593 68.9048 94.4636 68.2438 92.2518 66.9937C90.0401 65.7437 88.1865 63.9465 86.8687 61.7745C86.8687 61.7745 83.8377 54.9719 80.1426 50.6088C76.4474 46.2456 76.4862 45.8998 72.089 44.3305C67.6919 42.7612 62.5559 44.3305 62.5559 44.3305L52.4096 69.0741C51.9694 70.1431 51.9203 71.3332 52.2709 72.4349C52.6215 73.5366 53.3495 74.4793 54.3266 75.0973L76.9075 89.3554C77.6078 89.7972 78.185 90.4089 78.5855 91.1335C78.9861 91.8581 79.197 92.6723 79.1987 93.5002V118.083C79.1987 119.387 78.6807 120.638 77.7586 121.56C76.8365 122.482 75.5859 123 74.2819 123C72.9779 123 71.7273 122.482 70.8052 121.56C69.8832 120.638 69.3651 119.387 69.3651 118.083V96.209L49.0754 83.4257C46.1386 81.5731 43.9496 78.7437 42.8938 75.4358C41.838 72.1279 41.9831 68.5536 43.3035 65.3421L51.9278 44.3333H41.0218C40.1091 44.3298 39.2136 44.582 38.4368 45.0612C37.66 45.5405 37.0329 46.2276 36.6266 47.0449L29.5122 61.2785C28.9174 62.4243 27.896 63.2904 26.6683 63.6898C25.4407 64.0892 24.1052 63.9899 22.9501 63.4134C21.795 62.8369 20.9128 61.8294 20.494 60.6082C20.0751 59.3871 20.1532 58.0502 20.7113 56.8861L27.8304 42.628C29.052 40.1776 30.9349 38.1179 33.2661 36.682C35.5973 35.2461 38.2839 34.4911 41.0218 34.5026H73.5847C76.1272 34.5102 78.6252 35.1711 80.8388 36.4221C83.0523 37.6731 84.9072 39.472 86.2253 41.6463L95.2954 56.7056C95.7346 57.4293 96.3521 58.0281 97.0889 58.4448C97.8257 58.8615 98.6571 59.0821 99.5036 59.0856H113.614C114.26 59.0856 114.899 59.2127 115.495 59.4597C116.091 59.7068 116.633 60.0688 117.089 60.5252C117.545 60.9817 117.907 61.5235 118.154 62.1198C118.401 62.7161 118.528 63.3551 118.527 64.0005ZM44.1633 87.6717C43.5638 87.4314 42.9228 87.3116 42.2769 87.3192C41.631 87.3269 40.993 87.4618 40.3993 87.7163C39.8057 87.9708 39.268 88.3398 38.8171 88.8023C38.3662 89.2648 38.011 89.8117 37.7717 90.4117C37.4102 91.327 36.7809 92.1119 35.966 92.6637C35.1511 93.2154 34.1886 93.5083 33.2045 93.504H20.1916C18.8876 93.504 17.637 94.022 16.7149 94.9441C15.7929 95.8662 15.2748 97.1168 15.2748 98.4208C15.2748 99.7248 15.7929 100.975 16.7149 101.897C17.637 102.82 18.8876 103.338 20.1916 103.338H33.2045C36.1552 103.347 39.0404 102.468 41.4841 100.814C43.9277 99.1599 45.8165 96.8082 46.9042 94.0652C47.1446 93.4657 47.2643 92.8247 47.2567 92.1788C47.249 91.5329 47.1141 90.8949 46.8596 90.3013C46.6051 89.7076 46.2361 89.1699 45.7736 88.719C45.3111 88.2682 44.7642 87.9129 44.1643 87.6736L44.1633 87.6717ZM79.1949 29.5839C81.6261 29.5839 84.0027 28.863 86.0241 27.5123C88.0455 26.1616 89.621 24.2418 90.5513 21.9957C91.4816 19.7496 91.725 17.278 91.2506 14.8936C90.7763 12.5091 89.6055 10.3189 87.8863 8.5999C86.1672 6.88088 83.9769 5.71026 81.5924 5.23608C79.2079 4.7619 76.7364 5.00545 74.4903 5.93595C72.2443 6.86644 70.3246 8.44208 68.9741 10.4636C67.6235 12.4851 66.9028 14.8618 66.903 17.2929C66.9032 20.5528 68.1984 23.679 70.5035 25.984C72.8087 28.289 75.9351 29.5839 79.1949 29.5839Z" fill="#E0E9FB"/>
<path d="M125.141 64.0005C125.141 64.6457 125.014 65.2845 124.767 65.8806C124.52 66.4767 124.158 67.0183 123.702 67.4745C123.246 67.9307 122.704 68.2926 122.108 68.5395C121.512 68.7864 120.873 68.9135 120.228 68.9135H106.113C103.573 68.9048 101.077 68.2438 98.8655 66.9937C96.6538 65.7437 94.8002 63.9465 93.4823 61.7745L86.7572 50.6125L79.4463 68.425C79.2016 69.0226 78.8416 69.5661 78.3869 70.0245C77.9322 70.4829 77.3916 70.8473 76.7961 71.0968C76.2006 71.3463 75.5617 71.4761 74.916 71.4787C74.2703 71.4813 73.6304 71.3567 73.0329 71.1121C72.4354 70.8674 71.8919 70.5074 71.4334 70.0527C70.975 69.598 70.6107 69.0574 70.3611 68.4619C70.1116 67.8663 69.9819 67.2275 69.9792 66.5818C69.9766 65.9361 70.1012 65.2962 70.3459 64.6987L78.7036 44.3343H69.1705L59.0233 69.0741C58.583 70.1431 58.5339 71.3332 58.8846 72.4349C59.2352 73.5366 59.9631 74.4793 60.9403 75.0973L83.5212 89.3554C84.2214 89.7972 84.7987 90.4089 85.1992 91.1335C85.5998 91.8581 85.8107 92.6723 85.8124 93.5002V118.083C85.8124 119.387 85.2944 120.638 84.3723 121.56C83.4502 122.482 82.1996 123 80.8956 123C79.5916 123 78.341 122.482 77.4189 121.56C76.4968 120.638 75.9788 119.387 75.9788 118.083V96.209L55.6891 83.4257C52.7523 81.5731 50.5632 78.7437 49.5074 75.4358C48.4516 72.1279 48.5967 68.5536 49.9172 65.3421L58.5414 44.3333H47.6355C46.7228 44.3298 45.8273 44.582 45.0505 45.0612C44.2737 45.5405 43.6466 46.2276 43.2403 47.0449L36.1258 61.2785C35.5311 62.4243 34.5097 63.2904 33.282 63.6898C32.0544 64.0892 30.7189 63.9899 29.5638 63.4134C28.4087 62.8369 27.5265 61.8294 27.1077 60.6082C26.6888 59.3871 26.7669 58.0502 27.3249 56.8861L34.4441 42.628C35.6656 40.1776 37.5485 38.1179 39.8798 36.682C42.211 35.2461 44.8975 34.4911 47.6355 34.5026H80.1983C82.7409 34.5102 85.2389 35.1711 87.4524 36.4221C89.666 37.6731 91.5208 39.472 92.8389 41.6463L101.909 56.7056C102.348 57.4293 102.966 58.0281 103.703 58.4448C104.439 58.8615 105.271 59.0821 106.117 59.0856H120.228C120.873 59.0856 121.512 59.2127 122.109 59.4597C122.705 59.7068 123.246 60.0688 123.703 60.5252C124.159 60.9817 124.521 61.5235 124.768 62.1198C125.014 62.7161 125.141 63.3551 125.141 64.0005ZM50.777 87.6717C50.1775 87.4314 49.5364 87.3116 48.8906 87.3192C48.2447 87.3269 47.6067 87.4618 47.013 87.7163C46.4193 87.9708 45.8817 88.3398 45.4308 88.8023C44.9799 89.2648 44.6247 89.8117 44.3854 90.4117C44.0239 91.327 43.3946 92.1119 42.5797 92.6637C41.7648 93.2154 40.8023 93.5083 39.8182 93.504H26.8053C25.5013 93.504 24.2507 94.022 23.3286 94.9441C22.4065 95.8662 21.8885 97.1168 21.8885 98.4208C21.8885 99.7248 22.4065 100.975 23.3286 101.897C24.2507 102.82 25.5013 103.338 26.8053 103.338H39.8182C42.7689 103.347 45.6541 102.468 48.0977 100.814C50.5414 99.1599 52.4302 96.8082 53.5179 94.0652C53.7582 93.4657 53.878 92.8247 53.8704 92.1788C53.8627 91.5329 53.7278 90.8949 53.4733 90.3013C53.2188 89.7076 52.8498 89.1699 52.3873 88.719C51.9248 88.2682 51.3779 87.9129 50.7779 87.6736L50.777 87.6717ZM85.8086 29.5839C88.2398 29.5839 90.6163 28.863 92.6378 27.5123C94.6592 26.1616 96.2347 24.2418 97.165 21.9957C98.0953 19.7496 98.3387 17.278 97.8643 14.8936C97.3899 12.5091 96.2192 10.3189 94.5 8.5999C92.7808 6.88088 90.5905 5.71026 88.2061 5.23608C85.8216 4.7619 83.3501 5.00545 81.104 5.93595C78.858 6.86644 76.9383 8.44208 75.5878 10.4636C74.2372 12.4851 73.5165 14.8618 73.5166 17.2929C73.5169 20.5528 74.8121 23.679 77.1172 25.984C79.4224 28.289 82.5487 29.5839 85.8086 29.5839Z" fill="#E0E9FB"/>
</svg>
